# xmcd
#
# Track frame offsets: 
#        150
#        17333
#        31583
#        51016
#        65470
#        85874
#        103385
#        120305
#        140344
#        159354
#        176160
#
# Disc length: 2624 seconds
#
# Revision: 0
# Processed by: cddbd v1.5.2PL0 Copyright (c) Steve Scherf et al.
# Submitted via: ExactAudioCopy v0.99pb5
#
DISCID=810a3e0b
DTITLE=Remove the Veil - Another Way Home
DYEAR=2007
DGENRE=Southern Hardcore
TTITLE0=The Crux
TTITLE1=A Rage Scene Retold
TTITLE2=Vampire
TTITLE3=How To Jump A Ravine
TTITLE4=Burn It Down
TTITLE5=Watauga
TTITLE6=Devil Child
TTITLE7=Wait To Wake
TTITLE8=The Revision
TTITLE9=Another Way Home
TTITLE10=The Secret Syndrome
EXTD=
EXTT0=
EXTT1=
EXTT2=
EXTT3=
EXTT4=
EXTT5=
EXTT6=
EXTT7=
EXTT8=
EXTT9=
EXTT10=
PLAYORDER=
